<svg width="16" height="16" viewBox="0 0 16 16" fill="none" xmlns="http://www.w3.org/2000/svg">
<g clip-path="url(#clip0_3376_635)">
<path d="M7.18803 13.8804C7.03244 13.8804 6.88575 13.847 6.74795 13.7804C6.61014 13.7137 6.46567 13.607 6.31453 13.4603L3.80116 11.1589C3.55712 10.9355 3.4351 10.8237 3.28455 10.7652C3.13399 10.7067 2.96854 10.7067 2.63764 10.7067H1.3936C0.944623 10.7067 0.600114 10.5845 0.360068 10.34C0.120023 10.0955 0 9.73106 0 9.24656V6.7663C0 6.28625 0.120023 5.92399 0.360068 5.67952C0.600114 5.4306 0.944623 5.30614 1.3936 5.30614H2.64244C2.97102 5.30614 3.13531 5.30614 3.285 5.24838C3.43469 5.19062 3.55639 5.08026 3.79979 4.85955L6.31453 2.57919C6.4879 2.41917 6.63459 2.3036 6.75461 2.23249C6.87908 2.15692 7.01911 2.11914 7.17469 2.11914C7.4014 2.11914 7.58588 2.19693 7.72813 2.3525C7.87038 2.50363 7.9415 2.68809 7.9415 2.90589V13.1336C7.9415 13.347 7.87038 13.5248 7.72813 13.667C7.59033 13.8093 7.41029 13.8804 7.18803 13.8804Z" fill="white"/>
<g opacity="0.5">
<path d="M9.94087 6.80969C9.73586 6.60469 9.63335 6.50219 9.57542 6.39338C9.44621 6.15068 9.44621 5.85961 9.57542 5.61691C9.63335 5.5081 9.73586 5.4056 9.94088 5.2006C10.1459 4.9956 10.2484 4.89311 10.3572 4.83518C10.5999 4.70598 10.891 4.70598 11.1338 4.83518C11.2426 4.89311 11.3451 4.9956 11.5501 5.2006L15.5374 9.1876C15.7424 9.3926 15.8449 9.4951 15.9029 9.6039C16.0321 9.84661 16.0321 10.1377 15.9029 10.3804C15.8449 10.4892 15.7424 10.5917 15.5374 10.7967C15.3324 11.0017 15.2299 11.1042 15.1211 11.1621C14.8784 11.2913 14.5873 11.2913 14.3445 11.1621C14.2357 11.1042 14.1332 11.0017 13.9282 10.7967L9.94087 6.80969Z" fill="white"/>
<path d="M11.5503 10.7967C11.3453 11.0017 11.2428 11.1042 11.134 11.1621C10.8913 11.2913 10.6002 11.2913 10.3574 11.1621C10.2486 11.1042 10.1461 11.0017 9.9411 10.7967C9.73609 10.5917 9.63358 10.4892 9.57565 10.3804C9.44644 10.1377 9.44644 9.84661 9.57565 9.6039C9.63358 9.4951 9.73609 9.3926 9.9411 9.1876L13.9284 5.2006C14.1334 4.9956 14.236 4.89311 14.3448 4.83518C14.5875 4.70598 14.8786 4.70598 15.1213 4.83518C15.2301 4.89311 15.3326 4.9956 15.5377 5.2006C15.7427 5.4056 15.8452 5.5081 15.9031 5.61691C16.0323 5.85961 16.0323 6.15068 15.9031 6.39338C15.8452 6.50219 15.7427 6.60469 15.5377 6.80969L11.5503 10.7967Z" fill="white"/>
</g>
</g>
<defs>
<clipPath id="clip0_3376_635">
<rect width="16" height="16" fill="white"/>
</clipPath>
</defs>
</svg>
