<svg width="16" height="16" viewBox="0 0 16 16" fill="none" xmlns="http://www.w3.org/2000/svg">
<g clip-path="url(#clip0_3376_596)">
<path d="M6.05888 12.5797C5.56216 11.9898 5.3138 11.6948 5.41479 11.3107C5.51578 10.9265 5.81594 10.8146 6.41626 10.5908C7.45881 10.2021 8.60581 10.1627 9.66361 10.5281C10.2524 10.7315 10.5468 10.8332 10.654 11.2219C10.7612 11.6105 10.5147 11.9033 10.0216 12.4889L9.23247 13.4262C8.77505 13.9694 8.54633 14.241 8.2655 14.3214C8.09335 14.3707 7.91081 14.3707 7.73866 14.3214C7.45782 14.241 7.22908 13.9694 6.77163 13.4262L6.05888 12.5797Z" fill="white"/>
<path d="M3.08782 9.05576C2.77995 8.69013 2.62602 8.50731 2.59972 8.27787C2.58702 8.167 2.60508 8.02277 2.64474 7.91846C2.72682 7.7026 2.89763 7.58021 3.23924 7.33544C6.07457 5.30381 9.89863 5.24843 12.7901 7.18752C13.1806 7.44941 13.3759 7.58036 13.4598 7.82318C13.4891 7.90785 13.5055 8.02414 13.5008 8.11359C13.4873 8.37016 13.3156 8.57407 12.9722 8.98189C12.6328 9.38494 12.4631 9.58646 12.2693 9.65623C12.1831 9.68726 12.1266 9.69809 12.035 9.7011C11.8292 9.70787 11.5513 9.55877 10.9955 9.26056C9.10316 8.24528 6.89297 8.24814 5.05386 9.29845C4.5187 9.60408 4.25112 9.7569 4.05817 9.76176C3.93914 9.76476 3.86741 9.752 3.75671 9.70814C3.57727 9.63704 3.41412 9.44328 3.08782 9.05576Z" fill="white"/>
<path opacity="0.5" d="M0.803282 3.96398C5.08962 0.866215 10.9104 0.866155 15.1967 3.96391C15.6174 4.26792 15.8277 4.41996 15.9311 4.67467C15.9899 4.81931 16.0139 5.01443 15.992 5.16901C15.9535 5.4412 15.7668 5.66298 15.3934 6.10645C15.3784 6.12424 15.3709 6.13314 15.3698 6.13439C15.0904 6.46332 14.6625 6.50894 14.32 6.24633C14.3187 6.24532 14.3009 6.23153 14.2652 6.20394C10.6458 3.4039 5.56511 3.41755 1.96259 6.21701C1.8116 6.33433 1.73611 6.393 1.68686 6.42076C1.3836 6.59169 1.0645 6.55801 0.803616 6.32752C0.761248 6.29009 0.709706 6.22888 0.606622 6.10645C0.233204 5.66298 0.0464998 5.4412 0.00797574 5.16901C-0.0138986 5.01442 0.0101336 4.81932 0.0688751 4.67467C0.172311 4.41996 0.382641 4.26798 0.803282 3.96398Z" fill="white"/>
</g>
<defs>
<clipPath id="clip0_3376_596">
<rect width="16" height="16" fill="white"/>
</clipPath>
</defs>
</svg>
