<svg width="512" height="512" viewBox="0 0 512 512" fill="none" xmlns="http://www.w3.org/2000/svg">
<g filter="url(#filter0_ii_222_1343)">
<rect width="512" height="512" rx="256" fill="white" fill-opacity="0.08"/>
<g filter="url(#filter1_di_222_1343)">
<mask id="mask0_222_1343" style="mask-type:alpha" maskUnits="userSpaceOnUse" x="93" y="94" width="326" height="324">
<path fill-rule="evenodd" clip-rule="evenodd" d="M324.013 416.395C329.136 418.391 334.977 418.263 340.147 415.775L407.107 383.555C414.143 380.169 418.617 373.048 418.617 365.236V146.765C418.617 138.953 414.143 131.832 407.107 128.446L340.147 96.2252C333.361 92.9603 325.421 93.76 319.465 98.0894C318.615 98.7079 317.804 99.3984 317.044 100.159L188.857 217.107L133.021 174.723C127.824 170.777 120.553 171.101 115.726 175.492L97.8178 191.782C91.9129 197.153 91.9062 206.443 97.8031 211.823L146.226 256L97.8031 300.177C91.9062 305.557 91.9129 314.847 97.8178 320.218L115.726 336.508C120.553 340.899 127.824 341.223 133.021 337.277L188.857 294.893L317.044 411.84C319.072 413.87 321.453 415.397 324.013 416.395ZM337.359 182.168L240.094 256L337.359 329.831V182.168Z" fill="white"/>
</mask>
<g mask="url(#mask0_222_1343)">
<path d="M407.103 128.497L340.091 96.2318C332.334 92.4971 323.064 94.0724 316.977 100.16L97.6027 300.177C91.7021 305.557 91.7089 314.847 97.6174 320.218L115.536 336.508C120.367 340.9 127.642 341.223 132.842 337.278L397.019 136.867C405.882 130.144 418.612 136.465 418.612 147.59V146.812C418.612 139.003 414.139 131.885 407.103 128.497Z" fill="url(#paint0_linear_222_1343)"/>
<g filter="url(#filter2_d_222_1343)">
<path d="M407.103 383.505L340.091 415.77C332.334 419.505 323.064 417.929 316.977 411.842L97.6027 211.824C91.7021 206.444 91.7089 197.154 97.6174 191.783L115.536 175.493C120.367 171.102 127.642 170.778 132.842 174.724L397.019 375.134C405.882 381.858 418.612 375.536 418.612 364.412V365.19C418.612 372.999 414.139 380.117 407.103 383.505Z" fill="url(#paint1_linear_222_1343)"/>
</g>
<g filter="url(#filter3_d_222_1343)">
<path d="M340.099 415.775C332.34 419.507 323.07 417.928 316.982 411.84C324.484 419.342 337.309 414.029 337.309 403.421V108.579C337.309 97.9709 324.484 92.6583 316.982 100.159C323.07 94.0714 332.34 92.4938 340.099 96.2252L407.1 128.446C414.14 131.832 418.618 138.953 418.618 146.765V365.236C418.618 373.048 414.14 380.169 407.1 383.555L340.099 415.775Z" fill="url(#paint2_linear_222_1343)"/>
</g>
<g style="mix-blend-mode:overlay" opacity="0.25">
<path fill-rule="evenodd" clip-rule="evenodd" d="M323.81 416.395C328.932 418.39 334.774 418.263 339.944 415.775L406.903 383.555C413.939 380.169 418.414 373.048 418.414 365.236V146.765C418.414 138.953 413.94 131.832 406.904 128.446L339.944 96.2252C333.159 92.9603 325.217 93.76 319.262 98.0894C318.412 98.7079 317.601 99.3984 316.841 100.159L188.654 217.107L132.818 174.723C127.621 170.777 120.35 171.101 115.523 175.492L97.6147 191.782C91.7098 197.154 91.703 206.443 97.6 211.823L146.022 256L97.6 300.177C91.703 305.557 91.7098 314.846 97.6147 320.218L115.523 336.508C120.35 340.899 127.621 341.223 132.818 337.277L188.654 294.893L316.841 411.841C318.868 413.869 321.25 415.398 323.81 416.395ZM337.155 182.169L239.891 256L337.155 329.832V182.169Z" fill="url(#paint3_linear_222_1343)"/>
</g>
</g>
</g>
</g>
<defs>
<filter id="filter0_ii_222_1343" x="0" y="-4" width="512" height="520" filterUnits="userSpaceOnUse" color-interpolation-filters="sRGB">
<feFlood flood-opacity="0" result="BackgroundImageFix"/>
<feBlend mode="normal" in="SourceGraphic" in2="BackgroundImageFix" result="shape"/>
<feColorMatrix in="SourceAlpha" type="matrix" values="0 0 0 0 0 0 0 0 0 0 0 0 0 0 0 0 0 0 127 0" result="hardAlpha"/>
<feOffset dy="4"/>
<feGaussianBlur stdDeviation="2"/>
<feComposite in2="hardAlpha" operator="arithmetic" k2="-1" k3="1"/>
<feColorMatrix type="matrix" values="0 0 0 0 1 0 0 0 0 1 0 0 0 0 1 0 0 0 0.43 0"/>
<feBlend mode="normal" in2="shape" result="effect1_innerShadow_222_1343"/>
<feColorMatrix in="SourceAlpha" type="matrix" values="0 0 0 0 0 0 0 0 0 0 0 0 0 0 0 0 0 0 127 0" result="hardAlpha"/>
<feOffset dy="-4"/>
<feGaussianBlur stdDeviation="2"/>
<feComposite in2="hardAlpha" operator="arithmetic" k2="-1" k3="1"/>
<feColorMatrix type="matrix" values="0 0 0 0 1 0 0 0 0 1 0 0 0 0 1 0 0 0 0.43 0"/>
<feBlend mode="normal" in2="effect1_innerShadow_222_1343" result="effect2_innerShadow_222_1343"/>
</filter>
<filter id="filter1_di_222_1343" x="62.5848" y="78.4222" width="390.832" height="389.156" filterUnits="userSpaceOnUse" color-interpolation-filters="sRGB">
<feFlood flood-opacity="0" result="BackgroundImageFix"/>
<feColorMatrix in="SourceAlpha" type="matrix" values="0 0 0 0 0 0 0 0 0 0 0 0 0 0 0 0 0 0 127 0" result="hardAlpha"/>
<feOffset dx="2" dy="17"/>
<feGaussianBlur stdDeviation="16.4"/>
<feComposite in2="hardAlpha" operator="out"/>
<feColorMatrix type="matrix" values="0 0 0 0 0 0 0 0 0 0 0 0 0 0 0 0 0 0 0.17 0"/>
<feBlend mode="normal" in2="BackgroundImageFix" result="effect1_dropShadow_222_1343"/>
<feBlend mode="normal" in="SourceGraphic" in2="effect1_dropShadow_222_1343" result="shape"/>
<feColorMatrix in="SourceAlpha" type="matrix" values="0 0 0 0 0 0 0 0 0 0 0 0 0 0 0 0 0 0 127 0" result="hardAlpha"/>
<feOffset dy="4"/>
<feGaussianBlur stdDeviation="2"/>
<feComposite in2="hardAlpha" operator="arithmetic" k2="-1" k3="1"/>
<feColorMatrix type="matrix" values="0 0 0 0 1 0 0 0 0 1 0 0 0 0 1 0 0 0 0.43 0"/>
<feBlend mode="normal" in2="shape" result="effect2_innerShadow_222_1343"/>
</filter>
<filter id="filter2_d_222_1343" x="84.8483" y="163.635" width="342.096" height="262.474" filterUnits="userSpaceOnUse" color-interpolation-filters="sRGB">
<feFlood flood-opacity="0" result="BackgroundImageFix"/>
<feColorMatrix in="SourceAlpha" type="matrix" values="0 0 0 0 0 0 0 0 0 0 0 0 0 0 0 0 0 0 127 0" result="hardAlpha"/>
<feOffset/>
<feGaussianBlur stdDeviation="4.16667"/>
<feColorMatrix type="matrix" values="0 0 0 0 0 0 0 0 0 0 0 0 0 0 0 0 0 0 0.25 0"/>
<feBlend mode="overlay" in2="BackgroundImageFix" result="effect1_dropShadow_222_1343"/>
<feBlend mode="normal" in="SourceGraphic" in2="effect1_dropShadow_222_1343" result="shape"/>
</filter>
<filter id="filter3_d_222_1343" x="308.649" y="85.8888" width="118.301" height="340.223" filterUnits="userSpaceOnUse" color-interpolation-filters="sRGB">
<feFlood flood-opacity="0" result="BackgroundImageFix"/>
<feColorMatrix in="SourceAlpha" type="matrix" values="0 0 0 0 0 0 0 0 0 0 0 0 0 0 0 0 0 0 127 0" result="hardAlpha"/>
<feOffset/>
<feGaussianBlur stdDeviation="4.16667"/>
<feColorMatrix type="matrix" values="0 0 0 0 0 0 0 0 0 0 0 0 0 0 0 0 0 0 0.25 0"/>
<feBlend mode="overlay" in2="BackgroundImageFix" result="effect1_dropShadow_222_1343"/>
<feBlend mode="normal" in="SourceGraphic" in2="effect1_dropShadow_222_1343" result="shape"/>
</filter>
<linearGradient id="paint0_linear_222_1343" x1="255.897" y1="94.2256" x2="255.897" y2="340.033" gradientUnits="userSpaceOnUse">
<stop stop-color="#0065A9"/>
<stop offset="1" stop-color="#002843"/>
</linearGradient>
<linearGradient id="paint1_linear_222_1343" x1="255.897" y1="171.969" x2="255.897" y2="417.776" gradientUnits="userSpaceOnUse">
<stop stop-color="#007ACC"/>
<stop offset="1" stop-color="#003D66"/>
</linearGradient>
<linearGradient id="paint2_linear_222_1343" x1="367.8" y1="94.2222" x2="367.8" y2="417.778" gradientUnits="userSpaceOnUse">
<stop stop-color="#1F9CF0"/>
<stop offset="1" stop-color="#125A8A"/>
</linearGradient>
<linearGradient id="paint3_linear_222_1343" x1="255.798" y1="94.2222" x2="255.798" y2="417.778" gradientUnits="userSpaceOnUse">
<stop stop-color="white"/>
<stop offset="1" stop-color="white" stop-opacity="0"/>
</linearGradient>
</defs>
</svg>
