<svg width="512" height="512" viewBox="0 0 512 512" fill="none" xmlns="http://www.w3.org/2000/svg">
<g filter="url(#filter0_i_597_588)">
<g clip-path="url(#clip0_597_588)">
<path d="M223.728 2H287.167C333.253 2 367.662 2.00307 394.629 4.85352C421.56 7.70019 440.839 13.3689 456.748 24.5498C468.463 32.7835 478.664 42.984 486.897 54.6992C498.078 70.608 503.748 89.8871 506.595 116.818C509.445 143.786 509.447 178.194 509.447 224.28V287.72C509.447 333.806 509.445 368.214 506.595 395.182C503.748 422.113 498.078 441.392 486.897 457.301C478.664 469.016 468.463 479.217 456.748 487.45C440.839 498.631 421.56 504.301 394.629 507.147C367.662 509.998 333.253 510 287.167 510H223.728C177.641 510 143.233 509.998 116.266 507.147C89.3343 504.301 70.0552 498.631 54.1465 487.45C42.4312 479.217 32.2307 469.016 23.9971 457.301C12.8162 441.392 7.14745 422.113 4.30078 395.182C1.45033 368.214 1.44727 333.806 1.44727 287.72V224.28C1.44727 178.194 1.45033 143.786 4.30078 116.818C7.14746 89.8871 12.8162 70.608 23.9971 54.6992C32.2307 42.984 42.4313 32.7835 54.1465 24.5498C70.0552 13.369 89.3344 7.70019 116.266 4.85352C143.233 2.00307 177.641 2 223.728 2Z" fill="url(#paint0_linear_597_588)"/>
<path d="M223.728 2H287.167C333.253 2 367.662 2.00307 394.629 4.85352C421.56 7.70019 440.839 13.3689 456.748 24.5498C468.463 32.7835 478.664 42.984 486.897 54.6992C498.078 70.608 503.748 89.8871 506.595 116.818C509.445 143.786 509.447 178.194 509.447 224.28V287.72C509.447 333.806 509.445 368.214 506.595 395.182C503.748 422.113 498.078 441.392 486.897 457.301C478.664 469.016 468.463 479.217 456.748 487.45C440.839 498.631 421.56 504.301 394.629 507.147C367.662 509.998 333.253 510 287.167 510H223.728C177.641 510 143.233 509.998 116.266 507.147C89.3343 504.301 70.0552 498.631 54.1465 487.45C42.4312 479.217 32.2307 469.016 23.9971 457.301C12.8162 441.392 7.14745 422.113 4.30078 395.182C1.45033 368.214 1.44727 333.806 1.44727 287.72V224.28C1.44727 178.194 1.45033 143.786 4.30078 116.818C7.14746 89.8871 12.8162 70.608 23.9971 54.6992C32.2307 42.984 42.4313 32.7835 54.1465 24.5498C70.0552 13.369 89.3344 7.70019 116.266 4.85352C143.233 2.00307 177.641 2 223.728 2Z" stroke="url(#paint1_linear_597_588)" stroke-width="4"/>
<path d="M223.728 2H287.167C333.253 2 367.662 2.00307 394.629 4.85352C421.56 7.70019 440.839 13.3689 456.748 24.5498C468.463 32.7835 478.664 42.984 486.897 54.6992C498.078 70.608 503.748 89.8871 506.595 116.818C509.445 143.786 509.447 178.194 509.447 224.28V287.72C509.447 333.806 509.445 368.214 506.595 395.182C503.748 422.113 498.078 441.392 486.897 457.301C478.664 469.016 468.463 479.217 456.748 487.45C440.839 498.631 421.56 504.301 394.629 507.147C367.662 509.998 333.253 510 287.167 510H223.728C177.641 510 143.233 509.998 116.266 507.147C89.3343 504.301 70.0552 498.631 54.1465 487.45C42.4312 479.217 32.2307 469.016 23.9971 457.301C12.8162 441.392 7.14745 422.113 4.30078 395.182C1.45033 368.214 1.44727 333.806 1.44727 287.72V224.28C1.44727 178.194 1.45033 143.786 4.30078 116.818C7.14746 89.8871 12.8162 70.608 23.9971 54.6992C32.2307 42.984 42.4313 32.7835 54.1465 24.5498C70.0552 13.369 89.3344 7.70019 116.266 4.85352C143.233 2.00307 177.641 2 223.728 2Z" stroke="url(#paint2_linear_597_588)" stroke-width="4"/>
<path d="M223.728 2H287.167C333.253 2 367.662 2.00307 394.629 4.85352C421.56 7.70019 440.839 13.3689 456.748 24.5498C468.463 32.7835 478.664 42.984 486.897 54.6992C498.078 70.608 503.748 89.8871 506.595 116.818C509.445 143.786 509.447 178.194 509.447 224.28V287.72C509.447 333.806 509.445 368.214 506.595 395.182C503.748 422.113 498.078 441.392 486.897 457.301C478.664 469.016 468.463 479.217 456.748 487.45C440.839 498.631 421.56 504.301 394.629 507.147C367.662 509.998 333.253 510 287.167 510H223.728C177.641 510 143.233 509.998 116.266 507.147C89.3343 504.301 70.0552 498.631 54.1465 487.45C42.4312 479.217 32.2307 469.016 23.9971 457.301C12.8162 441.392 7.14745 422.113 4.30078 395.182C1.45033 368.214 1.44727 333.806 1.44727 287.72V224.28C1.44727 178.194 1.45033 143.786 4.30078 116.818C7.14746 89.8871 12.8162 70.608 23.9971 54.6992C32.2307 42.984 42.4313 32.7835 54.1465 24.5498C70.0552 13.369 89.3344 7.70019 116.266 4.85352C143.233 2.00307 177.641 2 223.728 2Z" stroke="url(#paint3_linear_597_588)" stroke-width="4"/>
<path d="M223.728 2H287.167C333.253 2 367.662 2.00307 394.629 4.85352C421.56 7.70019 440.839 13.3689 456.748 24.5498C468.463 32.7835 478.664 42.984 486.897 54.6992C498.078 70.608 503.748 89.8871 506.595 116.818C509.445 143.786 509.447 178.194 509.447 224.28V287.72C509.447 333.806 509.445 368.214 506.595 395.182C503.748 422.113 498.078 441.392 486.897 457.301C478.664 469.016 468.463 479.217 456.748 487.45C440.839 498.631 421.56 504.301 394.629 507.147C367.662 509.998 333.253 510 287.167 510H223.728C177.641 510 143.233 509.998 116.266 507.147C89.3343 504.301 70.0552 498.631 54.1465 487.45C42.4312 479.217 32.2307 469.016 23.9971 457.301C12.8162 441.392 7.14745 422.113 4.30078 395.182C1.45033 368.214 1.44727 333.806 1.44727 287.72V224.28C1.44727 178.194 1.45033 143.786 4.30078 116.818C7.14746 89.8871 12.8162 70.608 23.9971 54.6992C32.2307 42.984 42.4313 32.7835 54.1465 24.5498C70.0552 13.369 89.3344 7.70019 116.266 4.85352C143.233 2.00307 177.641 2 223.728 2Z" stroke="url(#paint4_linear_597_588)" stroke-width="4"/>
<g filter="url(#filter1_ddddi_597_588)">
<circle cx="358.167" cy="202.746" r="98.214" fill="url(#paint5_linear_597_588)"/>
</g>
<g filter="url(#filter2_dddd_597_588)">
<path d="M254.734 134.982C311.011 134.982 356.835 179.723 358.587 235.575C415.523 220.359 454.952 262.475 454.952 315.217C454.952 359.961 418.679 390.714 373.935 390.714H136.154C91.0655 390.713 54.5139 359.682 54.5137 314.593C54.5137 261.766 101.867 213.721 150.931 234.211C153.379 178.996 198.916 134.982 254.734 134.982Z" fill="white"/>
</g>
</g>
</g>
<defs>
<filter id="filter0_i_597_588" x="0" y="0" width="512" height="512" filterUnits="userSpaceOnUse" color-interpolation-filters="sRGB">
<feFlood flood-opacity="0" result="BackgroundImageFix"/>
<feBlend mode="normal" in="SourceGraphic" in2="BackgroundImageFix" result="shape"/>
<feColorMatrix in="SourceAlpha" type="matrix" values="0 0 0 0 0 0 0 0 0 0 0 0 0 0 0 0 0 0 127 0" result="hardAlpha"/>
<feOffset/>
<feGaussianBlur stdDeviation="3.8"/>
<feComposite in2="hardAlpha" operator="arithmetic" k2="-1" k3="1"/>
<feColorMatrix type="matrix" values="0 0 0 0 1 0 0 0 0 1 0 0 0 0 1 0 0 0 0.69 0"/>
<feBlend mode="normal" in2="shape" result="effect1_innerShadow_597_588"/>
</filter>
<filter id="filter1_ddddi_597_588" x="257.953" y="102.532" width="219.328" height="202.428" filterUnits="userSpaceOnUse" color-interpolation-filters="sRGB">
<feFlood flood-opacity="0" result="BackgroundImageFix"/>
<feColorMatrix in="SourceAlpha" type="matrix" values="0 0 0 0 0 0 0 0 0 0 0 0 0 0 0 0 0 0 127 0" result="hardAlpha"/>
<feOffset dy="2"/>
<feComposite in2="hardAlpha" operator="out"/>
<feColorMatrix type="matrix" values="0 0 0 0 0 0 0 0 0 0 0 0 0 0 0 0 0 0 1 0"/>
<feBlend mode="normal" in2="BackgroundImageFix" result="effect1_dropShadow_597_588"/>
<feColorMatrix in="SourceAlpha" type="matrix" values="0 0 0 0 0 0 0 0 0 0 0 0 0 0 0 0 0 0 127 0" result="hardAlpha"/>
<feOffset dy="-2"/>
<feComposite in2="hardAlpha" operator="out"/>
<feColorMatrix type="matrix" values="0 0 0 0 0 0 0 0 0 0 0 0 0 0 0 0 0 0 1 0"/>
<feBlend mode="normal" in2="effect1_dropShadow_597_588" result="effect2_dropShadow_597_588"/>
<feColorMatrix in="SourceAlpha" type="matrix" values="0 0 0 0 0 0 0 0 0 0 0 0 0 0 0 0 0 0 127 0" result="hardAlpha"/>
<feOffset dx="2"/>
<feComposite in2="hardAlpha" operator="out"/>
<feColorMatrix type="matrix" values="0 0 0 0 1 0 0 0 0 1 0 0 0 0 1 0 0 0 1 0"/>
<feBlend mode="normal" in2="effect2_dropShadow_597_588" result="effect3_dropShadow_597_588"/>
<feColorMatrix in="SourceAlpha" type="matrix" values="0 0 0 0 0 0 0 0 0 0 0 0 0 0 0 0 0 0 127 0" result="hardAlpha"/>
<feOffset dx="-2"/>
<feComposite in2="hardAlpha" operator="out"/>
<feColorMatrix type="matrix" values="0 0 0 0 1 0 0 0 0 1 0 0 0 0 1 0 0 0 1 0"/>
<feBlend mode="normal" in2="effect3_dropShadow_597_588" result="effect4_dropShadow_597_588"/>
<feBlend mode="normal" in="SourceGraphic" in2="effect4_dropShadow_597_588" result="shape"/>
<feColorMatrix in="SourceAlpha" type="matrix" values="0 0 0 0 0 0 0 0 0 0 0 0 0 0 0 0 0 0 127 0" result="hardAlpha"/>
<feOffset dx="23" dy="4"/>
<feGaussianBlur stdDeviation="10.45"/>
<feComposite in2="hardAlpha" operator="arithmetic" k2="-1" k3="1"/>
<feColorMatrix type="matrix" values="0 0 0 0 1 0 0 0 0 0.882709 0 0 0 0 0.448299 0 0 0 1 0"/>
<feBlend mode="normal" in2="shape" result="effect5_innerShadow_597_588"/>
</filter>
<filter id="filter2_dddd_597_588" x="52.5137" y="132.982" width="404.438" height="259.731" filterUnits="userSpaceOnUse" color-interpolation-filters="sRGB">
<feFlood flood-opacity="0" result="BackgroundImageFix"/>
<feColorMatrix in="SourceAlpha" type="matrix" values="0 0 0 0 0 0 0 0 0 0 0 0 0 0 0 0 0 0 127 0" result="hardAlpha"/>
<feOffset dy="2"/>
<feComposite in2="hardAlpha" operator="out"/>
<feColorMatrix type="matrix" values="0 0 0 0 0 0 0 0 0 0 0 0 0 0 0 0 0 0 1 0"/>
<feBlend mode="normal" in2="BackgroundImageFix" result="effect1_dropShadow_597_588"/>
<feColorMatrix in="SourceAlpha" type="matrix" values="0 0 0 0 0 0 0 0 0 0 0 0 0 0 0 0 0 0 127 0" result="hardAlpha"/>
<feOffset dy="-2"/>
<feComposite in2="hardAlpha" operator="out"/>
<feColorMatrix type="matrix" values="0 0 0 0 0 0 0 0 0 0 0 0 0 0 0 0 0 0 1 0"/>
<feBlend mode="normal" in2="effect1_dropShadow_597_588" result="effect2_dropShadow_597_588"/>
<feColorMatrix in="SourceAlpha" type="matrix" values="0 0 0 0 0 0 0 0 0 0 0 0 0 0 0 0 0 0 127 0" result="hardAlpha"/>
<feOffset dx="2"/>
<feComposite in2="hardAlpha" operator="out"/>
<feColorMatrix type="matrix" values="0 0 0 0 1 0 0 0 0 1 0 0 0 0 1 0 0 0 1 0"/>
<feBlend mode="normal" in2="effect2_dropShadow_597_588" result="effect3_dropShadow_597_588"/>
<feColorMatrix in="SourceAlpha" type="matrix" values="0 0 0 0 0 0 0 0 0 0 0 0 0 0 0 0 0 0 127 0" result="hardAlpha"/>
<feOffset dx="-2"/>
<feComposite in2="hardAlpha" operator="out"/>
<feColorMatrix type="matrix" values="0 0 0 0 1 0 0 0 0 1 0 0 0 0 1 0 0 0 1 0"/>
<feBlend mode="normal" in2="effect3_dropShadow_597_588" result="effect4_dropShadow_597_588"/>
<feBlend mode="normal" in="SourceGraphic" in2="effect4_dropShadow_597_588" result="shape"/>
</filter>
<linearGradient id="paint0_linear_597_588" x1="255.935" y1="512" x2="252.167" y2="0.0205648" gradientUnits="userSpaceOnUse">
<stop stop-color="#73B6FF"/>
<stop offset="1" stop-color="#0675FF"/>
</linearGradient>
<linearGradient id="paint1_linear_597_588" x1="255.447" y1="0" x2="255.447" y2="512" gradientUnits="userSpaceOnUse">
<stop stop-color="white" stop-opacity="0.48"/>
<stop offset="0.0354618" stop-color="white" stop-opacity="0"/>
</linearGradient>
<linearGradient id="paint2_linear_597_588" x1="255.447" y1="512" x2="255.447" y2="0" gradientUnits="userSpaceOnUse">
<stop stop-color="white" stop-opacity="0.48"/>
<stop offset="0.0354618" stop-color="white" stop-opacity="0"/>
</linearGradient>
<linearGradient id="paint3_linear_597_588" x1="79.5383" y1="-1.45444e-07" x2="431.356" y2="512" gradientUnits="userSpaceOnUse">
<stop stop-color="white" stop-opacity="0.48"/>
<stop offset="0.0354618" stop-color="white" stop-opacity="0"/>
</linearGradient>
<linearGradient id="paint4_linear_597_588" x1="511.447" y1="508.515" x2="-0.552702" y2="3.48528" gradientUnits="userSpaceOnUse">
<stop stop-color="white" stop-opacity="0.48"/>
<stop offset="0.0354618" stop-color="white" stop-opacity="0"/>
</linearGradient>
<linearGradient id="paint5_linear_597_588" x1="358.167" y1="104.532" x2="358.167" y2="300.96" gradientUnits="userSpaceOnUse">
<stop stop-color="#FFD900"/>
<stop offset="1" stop-color="#FDB701"/>
</linearGradient>
<clipPath id="clip0_597_588">
<rect width="512" height="512" fill="white"/>
</clipPath>
</defs>
</svg>
