<svg width="512" height="512" viewBox="0 0 512 512" fill="none" xmlns="http://www.w3.org/2000/svg">
<rect width="512" height="512" rx="256" fill="url(#paint0_linear_563_305)"/>
<ellipse cx="167.416" cy="167.268" rx="78.0649" ry="78.0647" fill="white" fill-opacity="0.1"/>
<ellipse cx="167.416" cy="344.733" rx="78.0649" ry="78.0647" fill="white" fill-opacity="0.1"/>
<ellipse cx="344.581" cy="167.268" rx="78.0649" ry="78.0647" fill="white" fill-opacity="0.1"/>
<ellipse cx="344.581" cy="344.432" rx="78.0649" ry="78.0647" fill="url(#paint1_linear_563_305)"/>
<path d="M378.208 353.866C382.777 353.866 386.481 357.57 386.481 362.139C386.481 366.708 382.777 370.412 378.208 370.412H312.266C307.697 370.412 303.992 366.708 303.992 362.139C303.992 357.57 307.697 353.866 312.266 353.866H378.208ZM378.208 320.895C382.777 320.895 386.481 324.598 386.481 329.167C386.481 333.736 382.777 337.44 378.208 337.44H312.266C307.697 337.44 303.992 333.736 303.992 329.167C303.992 324.598 307.697 320.895 312.266 320.895H378.208Z" fill="white"/>
<g filter="url(#filter0_ii_563_305)">
<path fill-rule="evenodd" clip-rule="evenodd" d="M314.038 136.729C317.39 133.377 322.826 133.377 326.178 136.729L344.579 155.13L362.977 136.732C366.33 133.38 371.765 133.38 375.118 136.732C378.47 140.085 378.47 145.521 375.118 148.874L356.72 167.271L375.118 185.669C378.47 189.021 378.47 194.457 375.118 197.809C371.765 201.162 366.33 201.162 362.977 197.809L344.58 179.412L326.178 197.813C322.826 201.166 317.39 201.165 314.038 197.813C310.685 194.461 310.685 189.025 314.038 185.673L332.438 167.27L314.038 148.87C310.685 145.517 310.685 140.082 314.038 136.729ZM375.143 147.314C374.923 147.611 374.68 147.897 374.411 148.166L356.012 166.563L356.013 166.564L374.411 148.166C374.503 148.073 374.594 147.98 374.68 147.884C374.846 147.7 374.999 147.509 375.143 147.314Z" fill="white" fill-opacity="0.7"/>
</g>
<g filter="url(#filter1_ii_563_305)">
<path d="M202.704 336.461C207.613 336.461 211.593 340.44 211.593 345.35C211.593 350.259 207.613 354.238 202.704 354.238H131.178C126.269 354.238 122.289 350.259 122.289 345.35C122.289 340.44 126.269 336.461 131.178 336.461H202.704Z" fill="white" fill-opacity="0.7"/>
</g>
<g filter="url(#filter2_ii_563_305)">
<path fill-rule="evenodd" clip-rule="evenodd" d="M167.419 124.078C172.16 124.078 176.004 127.922 176.004 132.663V158.684H202.022C206.764 158.684 210.607 162.527 210.607 167.269C210.607 172.01 206.764 175.854 202.022 175.854H176.004V201.874C176.004 206.615 172.16 210.459 167.419 210.459C162.678 210.459 158.834 206.615 158.834 201.874V175.854H132.812C128.07 175.854 124.227 172.01 124.227 167.269C124.227 162.527 128.07 158.684 132.812 158.684H158.834V132.663C158.834 127.922 162.678 124.078 167.419 124.078ZM209.598 166.878L209.569 166.505L209.568 166.503C209.581 166.627 209.591 166.752 209.598 166.878Z" fill="white" fill-opacity="0.7"/>
</g>
<defs>
<filter id="filter0_ii_563_305" x="311.523" y="133.715" width="66.1094" height="67.1133" filterUnits="userSpaceOnUse" color-interpolation-filters="sRGB">
<feFlood flood-opacity="0" result="BackgroundImageFix"/>
<feBlend mode="normal" in="SourceGraphic" in2="BackgroundImageFix" result="shape"/>
<feColorMatrix in="SourceAlpha" type="matrix" values="0 0 0 0 0 0 0 0 0 0 0 0 0 0 0 0 0 0 127 0" result="hardAlpha"/>
<feOffset dy="1"/>
<feGaussianBlur stdDeviation="0.25"/>
<feComposite in2="hardAlpha" operator="arithmetic" k2="-1" k3="1"/>
<feColorMatrix type="matrix" values="0 0 0 0 1 0 0 0 0 1 0 0 0 0 1 0 0 0 0.24 0"/>
<feBlend mode="normal" in2="shape" result="effect1_innerShadow_563_305"/>
<feColorMatrix in="SourceAlpha" type="matrix" values="0 0 0 0 0 0 0 0 0 0 0 0 0 0 0 0 0 0 127 0" result="hardAlpha"/>
<feOffset dy="-1"/>
<feGaussianBlur stdDeviation="0.25"/>
<feComposite in2="hardAlpha" operator="arithmetic" k2="-1" k3="1"/>
<feColorMatrix type="matrix" values="0 0 0 0 1 0 0 0 0 1 0 0 0 0 1 0 0 0 0.24 0"/>
<feBlend mode="normal" in2="effect1_innerShadow_563_305" result="effect2_innerShadow_563_305"/>
</filter>
<filter id="filter1_ii_563_305" x="122.289" y="335.961" width="89.3047" height="18.7773" filterUnits="userSpaceOnUse" color-interpolation-filters="sRGB">
<feFlood flood-opacity="0" result="BackgroundImageFix"/>
<feBlend mode="normal" in="SourceGraphic" in2="BackgroundImageFix" result="shape"/>
<feColorMatrix in="SourceAlpha" type="matrix" values="0 0 0 0 0 0 0 0 0 0 0 0 0 0 0 0 0 0 127 0" result="hardAlpha"/>
<feOffset dy="1"/>
<feGaussianBlur stdDeviation="0.25"/>
<feComposite in2="hardAlpha" operator="arithmetic" k2="-1" k3="1"/>
<feColorMatrix type="matrix" values="0 0 0 0 1 0 0 0 0 1 0 0 0 0 1 0 0 0 0.24 0"/>
<feBlend mode="normal" in2="shape" result="effect1_innerShadow_563_305"/>
<feColorMatrix in="SourceAlpha" type="matrix" values="0 0 0 0 0 0 0 0 0 0 0 0 0 0 0 0 0 0 127 0" result="hardAlpha"/>
<feOffset dy="-1"/>
<feGaussianBlur stdDeviation="0.25"/>
<feComposite in2="hardAlpha" operator="arithmetic" k2="-1" k3="1"/>
<feColorMatrix type="matrix" values="0 0 0 0 1 0 0 0 0 1 0 0 0 0 1 0 0 0 0.24 0"/>
<feBlend mode="normal" in2="effect1_innerShadow_563_305" result="effect2_innerShadow_563_305"/>
</filter>
<filter id="filter2_ii_563_305" x="124.227" y="123.578" width="86.3828" height="87.3828" filterUnits="userSpaceOnUse" color-interpolation-filters="sRGB">
<feFlood flood-opacity="0" result="BackgroundImageFix"/>
<feBlend mode="normal" in="SourceGraphic" in2="BackgroundImageFix" result="shape"/>
<feColorMatrix in="SourceAlpha" type="matrix" values="0 0 0 0 0 0 0 0 0 0 0 0 0 0 0 0 0 0 127 0" result="hardAlpha"/>
<feOffset dy="1"/>
<feGaussianBlur stdDeviation="0.25"/>
<feComposite in2="hardAlpha" operator="arithmetic" k2="-1" k3="1"/>
<feColorMatrix type="matrix" values="0 0 0 0 1 0 0 0 0 1 0 0 0 0 1 0 0 0 0.24 0"/>
<feBlend mode="normal" in2="shape" result="effect1_innerShadow_563_305"/>
<feColorMatrix in="SourceAlpha" type="matrix" values="0 0 0 0 0 0 0 0 0 0 0 0 0 0 0 0 0 0 127 0" result="hardAlpha"/>
<feOffset dy="-1"/>
<feGaussianBlur stdDeviation="0.25"/>
<feComposite in2="hardAlpha" operator="arithmetic" k2="-1" k3="1"/>
<feColorMatrix type="matrix" values="0 0 0 0 1 0 0 0 0 1 0 0 0 0 1 0 0 0 0.24 0"/>
<feBlend mode="normal" in2="effect1_innerShadow_563_305" result="effect2_innerShadow_563_305"/>
</filter>
<linearGradient id="paint0_linear_563_305" x1="256" y1="512" x2="256" y2="0" gradientUnits="userSpaceOnUse">
<stop/>
<stop offset="1" stop-color="#1B1B1B"/>
</linearGradient>
<linearGradient id="paint1_linear_563_305" x1="344.58" y1="266.367" x2="344.58" y2="422.497" gradientUnits="userSpaceOnUse">
<stop stop-color="#FFB300"/>
<stop offset="1" stop-color="#FF3C00"/>
</linearGradient>
</defs>
</svg>
