<svg width="512" height="512" viewBox="0 0 512 512" fill="none" xmlns="http://www.w3.org/2000/svg">
<g clip-path="url(#clip0_563_183)">
<rect width="512" height="512" rx="256" fill="url(#paint0_linear_563_183)"/>
<g filter="url(#filter0_iiii_563_183)">
<path d="M395.436 322.475H414.893C420.276 322.475 424.621 326.819 424.621 332.203V348.417C424.621 353.8 420.276 358.145 414.893 358.145H395.436C390.053 358.145 385.708 353.8 385.708 348.417V332.203C385.708 326.819 390.053 322.475 395.436 322.475ZM259.241 322.475H369.494C374.878 322.475 379.223 326.819 379.223 332.203V348.417C379.223 353.8 374.878 358.145 369.494 358.145H259.241C253.845 358.145 249.513 353.8 249.513 348.417V332.203C249.513 326.819 253.845 322.475 259.241 322.475ZM213.842 322.475H233.299C238.682 322.475 243.027 326.819 243.027 332.203V348.417C243.027 353.8 238.682 358.145 233.299 358.145H213.842C208.459 358.145 204.114 353.8 204.114 348.417V332.203C204.114 326.819 208.459 322.475 213.842 322.475ZM168.444 322.475H187.9C193.284 322.475 197.629 326.819 197.629 332.203V348.417C197.629 353.8 193.284 358.145 187.9 358.145H168.444C163.06 358.145 158.716 353.8 158.716 348.417V332.203C158.716 326.819 163.06 322.475 168.444 322.475ZM97.1033 322.475H142.502C147.885 322.475 152.23 326.819 152.23 332.203V348.417C152.23 353.8 147.885 358.145 142.502 358.145H97.1033C91.7071 358.145 87.375 353.8 87.375 348.417V332.203C87.375 326.819 91.7071 322.475 97.1033 322.475ZM414.766 245.155H414.893C420.276 245.155 424.621 249.5 424.621 254.884V306.261C424.621 311.644 420.276 315.989 414.893 315.989H414.766C409.37 315.989 405.038 311.644 405.038 306.261V254.884C405.038 249.5 409.37 245.155 414.766 245.155ZM395.436 231.678H414.893C420.276 231.678 424.621 236.022 424.621 241.406V257.62C424.621 263.003 420.276 267.348 414.893 267.348H395.436C390.053 267.348 385.708 263.003 385.708 257.62V241.406C385.708 236.022 390.053 231.678 395.436 231.678ZM369.494 277.076H388.951C394.334 277.076 398.679 281.421 398.679 286.804V303.018C398.679 308.402 394.334 312.746 388.951 312.746H369.494C364.111 312.746 359.766 308.402 359.766 303.018V286.804C359.766 281.421 364.111 277.076 369.494 277.076ZM324.096 277.076H343.552C348.936 277.076 353.281 281.421 353.281 286.804V303.018C353.281 308.402 348.936 312.746 343.552 312.746H324.096C318.712 312.746 314.368 308.402 314.368 303.018V286.804C314.368 281.421 318.712 277.076 324.096 277.076ZM97.1033 277.076H116.56C121.943 277.076 126.288 281.421 126.288 286.804V303.018C126.288 308.402 121.943 312.746 116.56 312.746H97.1033C91.7198 312.746 87.375 308.402 87.375 303.018V286.804C87.375 281.421 91.7198 277.076 97.1033 277.076ZM278.697 277.076H298.154C303.537 277.076 307.882 281.421 307.882 286.804V303.018C307.882 308.402 303.537 312.746 298.154 312.746H278.697C273.314 312.746 268.969 308.402 268.969 303.018V286.804C268.969 281.421 273.314 277.076 278.697 277.076ZM233.299 277.076H252.755C258.139 277.076 262.484 281.421 262.484 286.804V303.018C262.484 308.402 258.139 312.746 252.755 312.746H233.299C227.915 312.746 223.571 308.402 223.571 303.018V286.804C223.571 281.421 227.915 277.076 233.299 277.076ZM187.9 277.076H207.357C212.74 277.076 217.085 281.421 217.085 286.804V303.018C217.085 308.402 212.74 312.746 207.357 312.746H187.9C182.517 312.746 178.172 308.402 178.172 303.018V286.804C178.172 281.421 182.517 277.076 187.9 277.076ZM142.502 277.076H161.958C167.342 277.076 171.687 281.421 171.687 286.804V303.018C171.687 308.402 167.342 312.746 161.958 312.746H142.502C137.118 312.746 132.774 308.402 132.774 303.018V286.804C132.774 281.421 137.118 277.076 142.502 277.076ZM350.038 231.678H369.494C374.878 231.678 379.223 236.022 379.223 241.406V257.62C379.223 263.003 374.878 267.348 369.494 267.348H350.038C344.654 267.348 340.31 263.003 340.31 257.62V241.406C340.31 236.022 344.654 231.678 350.038 231.678ZM304.639 231.678H324.096C329.479 231.678 333.824 236.022 333.824 241.406V257.62C333.824 263.003 329.479 267.348 324.096 267.348H304.639C299.256 267.348 294.911 263.003 294.911 257.62V241.406C294.911 236.022 299.256 231.678 304.639 231.678ZM259.241 231.678H278.697C284.081 231.678 288.426 236.022 288.426 241.406V257.62C288.426 263.003 284.081 267.348 278.697 267.348H259.241C253.857 267.348 249.513 263.003 249.513 257.62V241.406C249.513 236.022 253.857 231.678 259.241 231.678ZM213.842 231.678H233.299C238.682 231.678 243.027 236.022 243.027 241.406V257.62C243.027 263.003 238.682 267.348 233.299 267.348H213.842C208.459 267.348 204.114 263.003 204.114 257.62V241.406C204.114 236.022 208.459 231.678 213.842 231.678ZM168.444 231.678H187.9C193.284 231.678 197.629 236.022 197.629 241.406V257.62C197.629 263.003 193.284 267.348 187.9 267.348H168.444C163.06 267.348 158.716 263.003 158.716 257.62V241.406C158.716 236.022 163.06 231.678 168.444 231.678ZM97.1033 231.678H142.502C147.885 231.678 152.23 236.022 152.23 241.406V257.62C152.23 263.003 147.885 267.348 142.502 267.348H97.1033C91.7071 267.348 87.375 263.003 87.375 257.62V241.406C87.375 236.022 91.7071 231.678 97.1033 231.678ZM369.494 186.089H414.893C420.276 186.089 424.621 190.434 424.621 195.817V212.031C424.621 217.415 420.276 221.759 414.893 221.759H369.494C364.111 221.759 359.766 217.415 359.766 212.031V195.817C359.766 190.434 364.111 186.089 369.494 186.089ZM324.096 186.089H343.552C348.936 186.089 353.281 190.434 353.281 195.817V212.031C353.281 217.415 348.936 221.759 343.552 221.759H324.096C318.712 221.759 314.368 217.415 314.368 212.031V195.817C314.368 190.434 318.712 186.089 324.096 186.089ZM97.1033 186.089H116.56C121.943 186.089 126.288 190.434 126.288 195.817V212.031C126.288 217.415 121.943 221.759 116.56 221.759H97.1033C91.7198 221.759 87.375 217.415 87.375 212.031V195.817C87.375 190.434 91.7198 186.089 97.1033 186.089ZM278.697 186.089H298.154C303.537 186.089 307.882 190.434 307.882 195.817V212.031C307.882 217.415 303.537 221.759 298.154 221.759H278.697C273.314 221.759 268.969 217.415 268.969 212.031V195.817C268.969 190.434 273.314 186.089 278.697 186.089ZM233.299 186.089H252.755C258.139 186.089 262.484 190.434 262.484 195.817V212.031C262.484 217.415 258.139 221.759 252.755 221.759H233.299C227.915 221.759 223.571 217.415 223.571 212.031V195.817C223.571 190.434 227.915 186.089 233.299 186.089ZM187.9 186.089H207.357C212.74 186.089 217.085 190.434 217.085 195.817V212.031C217.085 217.415 212.74 221.759 207.357 221.759H187.9C182.517 221.759 178.172 217.415 178.172 212.031V195.817C178.172 190.434 182.517 186.089 187.9 186.089ZM142.502 186.089H161.958C167.342 186.089 171.687 190.434 171.687 195.817V212.031C171.687 217.415 167.342 221.759 161.958 221.759H142.502C137.118 221.759 132.774 217.415 132.774 212.031V195.817C132.774 190.434 137.118 186.089 142.502 186.089ZM395.436 153.852H414.893C420.276 153.852 424.621 157.462 424.621 161.958C424.621 166.455 420.276 170.065 414.893 170.065H395.436C390.053 170.065 385.708 166.455 385.708 161.958C385.708 157.462 390.053 153.852 395.436 153.852ZM350.038 153.852H369.494C374.878 153.852 379.223 157.462 379.223 161.958C379.223 166.455 374.878 170.065 369.494 170.065H350.038C344.654 170.065 340.31 166.455 340.31 161.958C340.31 157.462 344.654 153.852 350.038 153.852ZM278.697 153.852H298.154C303.537 153.852 307.882 157.462 307.882 161.958C307.882 166.455 303.537 170.065 298.154 170.065H278.697C273.314 170.065 268.969 166.455 268.969 161.958C268.969 157.462 273.314 153.852 278.697 153.852ZM233.299 153.852H252.755C258.139 153.852 262.484 157.462 262.484 161.958C262.484 166.455 258.139 170.065 252.755 170.065H233.299C227.915 170.065 223.571 166.455 223.571 161.958C223.571 157.462 227.915 153.852 233.299 153.852ZM187.9 153.852H207.357C212.74 153.852 217.085 157.462 217.085 161.958C217.085 166.455 212.74 170.065 207.357 170.065H187.9C182.517 170.065 178.172 166.455 178.172 161.958C178.172 157.462 182.517 153.852 187.9 153.852ZM142.502 153.852H161.958C167.342 153.852 171.687 157.462 171.687 161.958C171.687 166.455 167.342 170.065 161.958 170.065H142.502C137.118 170.065 132.774 166.455 132.774 161.958C132.774 157.462 137.118 153.852 142.502 153.852ZM97.1033 153.852H116.56C121.943 153.852 126.288 157.462 126.288 161.958C126.288 166.455 121.943 170.065 116.56 170.065H97.1033C91.7198 170.065 87.375 166.455 87.375 161.958C87.375 157.462 91.7198 153.852 97.1033 153.852Z" fill="white" fill-opacity="0.18"/>
</g>
<g filter="url(#filter1_iiii_563_183)">
<path d="M259.315 371.911C304.523 371.911 332.593 345.569 333.968 305.721H286.115C284.211 322.824 273.949 332.169 259.914 332.169C241.93 332.169 230.187 316.935 230.187 288.3C230.187 259.878 242.035 244.679 259.914 244.679C274.584 244.679 284.105 254.623 286.115 271.092H333.968C332.805 231.455 303.924 205.642 259.209 205.642C208.605 205.642 178.031 239.424 178.031 288.829C178.031 338.022 208.394 371.911 259.315 371.911ZM238.65 140.086H195.734V141.461L241.083 188.433H277.828L323.072 141.461V140.086H280.261L259.42 164.418L238.65 140.086Z" fill="white"/>
</g>
</g>
<defs>
<filter id="filter0_iiii_563_183" x="86.875" y="153.352" width="338.242" height="205.293" filterUnits="userSpaceOnUse" color-interpolation-filters="sRGB">
<feFlood flood-opacity="0" result="BackgroundImageFix"/>
<feBlend mode="normal" in="SourceGraphic" in2="BackgroundImageFix" result="shape"/>
<feColorMatrix in="SourceAlpha" type="matrix" values="0 0 0 0 0 0 0 0 0 0 0 0 0 0 0 0 0 0 127 0" result="hardAlpha"/>
<feOffset dx="1"/>
<feGaussianBlur stdDeviation="0.25"/>
<feComposite in2="hardAlpha" operator="arithmetic" k2="-1" k3="1"/>
<feColorMatrix type="matrix" values="0 0 0 0 0 0 0 0 0 0 0 0 0 0 0 0 0 0 1 0"/>
<feBlend mode="normal" in2="shape" result="effect1_innerShadow_563_183"/>
<feColorMatrix in="SourceAlpha" type="matrix" values="0 0 0 0 0 0 0 0 0 0 0 0 0 0 0 0 0 0 127 0" result="hardAlpha"/>
<feOffset dx="-1"/>
<feGaussianBlur stdDeviation="0.25"/>
<feComposite in2="hardAlpha" operator="arithmetic" k2="-1" k3="1"/>
<feColorMatrix type="matrix" values="0 0 0 0 0 0 0 0 0 0 0 0 0 0 0 0 0 0 1 0"/>
<feBlend mode="normal" in2="effect1_innerShadow_563_183" result="effect2_innerShadow_563_183"/>
<feColorMatrix in="SourceAlpha" type="matrix" values="0 0 0 0 0 0 0 0 0 0 0 0 0 0 0 0 0 0 127 0" result="hardAlpha"/>
<feOffset dy="1"/>
<feGaussianBlur stdDeviation="0.25"/>
<feComposite in2="hardAlpha" operator="arithmetic" k2="-1" k3="1"/>
<feColorMatrix type="matrix" values="0 0 0 0 1 0 0 0 0 1 0 0 0 0 1 0 0 0 0.24 0"/>
<feBlend mode="normal" in2="effect2_innerShadow_563_183" result="effect3_innerShadow_563_183"/>
<feColorMatrix in="SourceAlpha" type="matrix" values="0 0 0 0 0 0 0 0 0 0 0 0 0 0 0 0 0 0 127 0" result="hardAlpha"/>
<feOffset dy="-1"/>
<feGaussianBlur stdDeviation="0.25"/>
<feComposite in2="hardAlpha" operator="arithmetic" k2="-1" k3="1"/>
<feColorMatrix type="matrix" values="0 0 0 0 1 0 0 0 0 1 0 0 0 0 1 0 0 0 0.24 0"/>
<feBlend mode="normal" in2="effect3_innerShadow_563_183" result="effect4_innerShadow_563_183"/>
</filter>
<filter id="filter1_iiii_563_183" x="177.531" y="139.586" width="156.938" height="232.824" filterUnits="userSpaceOnUse" color-interpolation-filters="sRGB">
<feFlood flood-opacity="0" result="BackgroundImageFix"/>
<feBlend mode="normal" in="SourceGraphic" in2="BackgroundImageFix" result="shape"/>
<feColorMatrix in="SourceAlpha" type="matrix" values="0 0 0 0 0 0 0 0 0 0 0 0 0 0 0 0 0 0 127 0" result="hardAlpha"/>
<feOffset dx="1"/>
<feGaussianBlur stdDeviation="0.25"/>
<feComposite in2="hardAlpha" operator="arithmetic" k2="-1" k3="1"/>
<feColorMatrix type="matrix" values="0 0 0 0 0 0 0 0 0 0 0 0 0 0 0 0 0 0 1 0"/>
<feBlend mode="normal" in2="shape" result="effect1_innerShadow_563_183"/>
<feColorMatrix in="SourceAlpha" type="matrix" values="0 0 0 0 0 0 0 0 0 0 0 0 0 0 0 0 0 0 127 0" result="hardAlpha"/>
<feOffset dx="-1"/>
<feGaussianBlur stdDeviation="0.25"/>
<feComposite in2="hardAlpha" operator="arithmetic" k2="-1" k3="1"/>
<feColorMatrix type="matrix" values="0 0 0 0 0 0 0 0 0 0 0 0 0 0 0 0 0 0 1 0"/>
<feBlend mode="normal" in2="effect1_innerShadow_563_183" result="effect2_innerShadow_563_183"/>
<feColorMatrix in="SourceAlpha" type="matrix" values="0 0 0 0 0 0 0 0 0 0 0 0 0 0 0 0 0 0 127 0" result="hardAlpha"/>
<feOffset dy="1"/>
<feGaussianBlur stdDeviation="0.25"/>
<feComposite in2="hardAlpha" operator="arithmetic" k2="-1" k3="1"/>
<feColorMatrix type="matrix" values="0 0 0 0 1 0 0 0 0 1 0 0 0 0 1 0 0 0 0.24 0"/>
<feBlend mode="normal" in2="effect2_innerShadow_563_183" result="effect3_innerShadow_563_183"/>
<feColorMatrix in="SourceAlpha" type="matrix" values="0 0 0 0 0 0 0 0 0 0 0 0 0 0 0 0 0 0 127 0" result="hardAlpha"/>
<feOffset dy="-1"/>
<feGaussianBlur stdDeviation="0.25"/>
<feComposite in2="hardAlpha" operator="arithmetic" k2="-1" k3="1"/>
<feColorMatrix type="matrix" values="0 0 0 0 1 0 0 0 0 1 0 0 0 0 1 0 0 0 0.24 0"/>
<feBlend mode="normal" in2="effect3_innerShadow_563_183" result="effect4_innerShadow_563_183"/>
</filter>
<linearGradient id="paint0_linear_563_183" x1="256" y1="0" x2="256" y2="512" gradientUnits="userSpaceOnUse">
<stop/>
<stop offset="1" stop-opacity="0.13"/>
</linearGradient>
<clipPath id="clip0_563_183">
<rect width="512" height="512" rx="256" fill="white"/>
</clipPath>
</defs>
</svg>
