<svg width="512" height="512" viewBox="0 0 512 512" fill="none" xmlns="http://www.w3.org/2000/svg">
<rect width="512" height="512" rx="256" fill="url(#paint0_linear_563_550)"/>
<path d="M357.448 85.166C366.934 83.6912 372.297 84.7233 376.357 87.7139C380.418 90.7051 382.99 95.5195 384.379 105.006C385.788 114.636 385.804 127.719 385.804 146.06V153.418C385.804 153.464 385.801 153.509 385.797 153.554V307.91L385.795 307.954L385.689 309.729C383.815 341.355 357.53 366.426 325.389 366.426C292.029 366.426 264.981 339.421 264.981 306.104C264.982 272.788 292.029 245.784 325.389 245.784C335.907 245.784 345.78 248.463 354.38 253.171L359.658 256.06C361.022 256.806 361.897 257.281 362.55 257.521C362.861 257.636 363.029 257.661 363.106 257.663H363.108L363.109 257.661C363.145 257.592 363.203 257.432 363.252 257.104C363.354 256.416 363.358 255.421 363.358 253.866V185.721C363.358 179.88 363.355 175.669 362.899 172.571C362.449 169.508 361.601 167.878 360.19 166.88C358.78 165.882 356.961 165.624 353.922 166.219C350.85 166.82 346.876 168.218 341.368 170.161L231.967 208.76C229.033 209.795 226.95 210.532 225.387 211.29C223.858 212.032 222.962 212.732 222.334 213.619C221.707 214.506 221.344 215.584 221.153 217.272C220.958 218.999 220.957 221.208 220.957 224.319V360.841L220.986 361.136C221.098 362.26 221.065 363.063 221.023 364.115C220.993 364.882 220.956 365.814 220.956 367.179C220.956 400.495 193.908 427.5 160.548 427.5C127.188 427.5 100.141 400.495 100.141 367.179C100.141 333.863 127.188 306.859 160.548 306.858C171.066 306.858 180.939 309.538 189.539 314.245L194.817 317.134C196.182 317.881 197.056 318.355 197.709 318.596C198.02 318.71 198.188 318.735 198.266 318.737H198.268L198.269 318.735C198.304 318.666 198.363 318.506 198.411 318.179C198.513 317.49 198.518 316.496 198.518 314.941V171.408C198.518 160.863 198.528 153.468 199.193 147.726C199.841 142.139 201.053 138.754 203.058 136.04C205.062 133.327 207.943 131.172 213.097 128.905C218.395 126.575 225.468 124.384 235.559 121.271L317.745 95.9219C335.295 90.5089 347.818 86.6633 357.448 85.166Z" fill="white" stroke="white" stroke-width="3"/>
<defs>
<linearGradient id="paint0_linear_563_550" x1="256" y1="0" x2="256" y2="512" gradientUnits="userSpaceOnUse">
<stop stop-color="#FF8676"/>
<stop offset="1" stop-color="#FF0000"/>
</linearGradient>
</defs>
</svg>
