<svg width="512" height="512" viewBox="0 0 512 512" fill="none" xmlns="http://www.w3.org/2000/svg">
<rect width="512" height="512" rx="256" fill="url(#paint0_linear_563_113)"/>
<path d="M371.8 151.328L312.769 210.359V306.703L371.8 365.734L363.314 374.22L304.282 315.188H207.938L148.906 374.22L140.422 365.734L199.453 306.703V210.359L140.422 151.328L148.906 142.844L207.938 201.874H304.283L363.314 142.844L371.8 151.328ZM211.453 303.188H300.769V213.874H211.453V303.188Z" fill="url(#paint1_linear_563_113)"/>
<path d="M371.8 151.328L312.769 210.359V306.703L371.8 365.734L363.314 374.22L304.282 315.188H207.938L148.906 374.22L140.422 365.734L199.453 306.703V210.359L140.422 151.328L148.906 142.844L207.938 201.874H304.283L363.314 142.844L371.8 151.328ZM211.453 303.188H300.769V213.874H211.453V303.188Z" stroke="url(#paint2_linear_563_113)"/>
<path d="M144.664 147.086H367.557V369.977H144.664V147.086Z" stroke="url(#paint3_linear_563_113)" stroke-width="12"/>
<g filter="url(#filter0_di_563_113)">
<path d="M144.668 334.518C161.454 334.518 175.062 348.125 175.062 364.911C175.062 381.697 161.454 395.306 144.668 395.306C127.882 395.306 114.273 381.697 114.273 364.911C114.274 348.125 127.882 334.518 144.668 334.518ZM367.557 334.518C384.343 334.518 397.951 348.125 397.951 364.911C397.951 381.697 384.343 395.306 367.557 395.306C350.77 395.306 337.162 381.697 337.162 364.911C337.162 348.125 350.77 334.518 367.557 334.518ZM205.45 283.86C216.641 283.86 225.714 292.932 225.714 304.123C225.714 315.314 216.641 324.386 205.45 324.386C194.259 324.386 185.188 315.314 185.188 304.123C185.188 292.932 194.259 283.861 205.45 283.86ZM306.767 283.86C317.958 283.86 327.03 292.932 327.03 304.123C327.03 315.314 317.957 324.386 306.767 324.386C295.576 324.386 286.504 315.314 286.504 304.123C286.504 292.932 295.576 283.861 306.767 283.86ZM205.45 182.545C216.641 182.545 225.714 191.617 225.714 202.808C225.714 213.998 216.641 223.071 205.45 223.071C194.259 223.071 185.188 213.998 185.188 202.808C185.188 191.617 194.26 182.545 205.45 182.545ZM306.767 182.545C317.957 182.545 327.03 191.617 327.03 202.808C327.03 213.998 317.958 223.071 306.767 223.071C295.576 223.071 286.504 213.998 286.504 202.808C286.504 191.617 295.576 182.545 306.767 182.545ZM144.668 111.625C161.454 111.625 175.062 125.233 175.062 142.02C175.062 158.806 161.454 172.413 144.668 172.413C127.882 172.413 114.274 158.806 114.273 142.02C114.273 125.233 127.882 111.625 144.668 111.625ZM367.557 111.625C384.343 111.625 397.951 125.233 397.951 142.02C397.951 158.806 384.343 172.413 367.557 172.413C350.77 172.413 337.162 158.806 337.162 142.02C337.162 125.233 350.77 111.625 367.557 111.625Z" fill="url(#paint4_linear_563_113)"/>
</g>
<defs>
<filter id="filter0_di_563_113" x="83.4734" y="95.825" width="349.28" height="349.28" filterUnits="userSpaceOnUse" color-interpolation-filters="sRGB">
<feFlood flood-opacity="0" result="BackgroundImageFix"/>
<feColorMatrix in="SourceAlpha" type="matrix" values="0 0 0 0 0 0 0 0 0 0 0 0 0 0 0 0 0 0 127 0" result="hardAlpha"/>
<feOffset dx="2" dy="17"/>
<feGaussianBlur stdDeviation="16.4"/>
<feComposite in2="hardAlpha" operator="out"/>
<feColorMatrix type="matrix" values="0 0 0 0 0 0 0 0 0 0 0 0 0 0 0 0 0 0 0.17 0"/>
<feBlend mode="normal" in2="BackgroundImageFix" result="effect1_dropShadow_563_113"/>
<feBlend mode="normal" in="SourceGraphic" in2="effect1_dropShadow_563_113" result="shape"/>
<feColorMatrix in="SourceAlpha" type="matrix" values="0 0 0 0 0 0 0 0 0 0 0 0 0 0 0 0 0 0 127 0" result="hardAlpha"/>
<feOffset dy="-4"/>
<feGaussianBlur stdDeviation="1.85"/>
<feComposite in2="hardAlpha" operator="arithmetic" k2="-1" k3="1"/>
<feColorMatrix type="matrix" values="0 0 0 0 1 0 0 0 0 1 0 0 0 0 1 0 0 0 0.43 0"/>
<feBlend mode="normal" in2="shape" result="effect2_innerShadow_563_113"/>
</filter>
<linearGradient id="paint0_linear_563_113" x1="256" y1="0" x2="256" y2="512" gradientUnits="userSpaceOnUse">
<stop/>
<stop offset="1" stop-opacity="0.13"/>
</linearGradient>
<linearGradient id="paint1_linear_563_113" x1="256.111" y1="142.844" x2="256.111" y2="374.22" gradientUnits="userSpaceOnUse">
<stop stop-color="white"/>
<stop offset="1" stop-color="#999999" stop-opacity="0.34"/>
</linearGradient>
<linearGradient id="paint2_linear_563_113" x1="256.111" y1="142.844" x2="256.111" y2="374.22" gradientUnits="userSpaceOnUse">
<stop stop-color="white"/>
<stop offset="1" stop-color="#999999" stop-opacity="0.34"/>
</linearGradient>
<linearGradient id="paint3_linear_563_113" x1="256.111" y1="147.086" x2="256.111" y2="369.977" gradientUnits="userSpaceOnUse">
<stop stop-color="white"/>
<stop offset="1" stop-color="#999999" stop-opacity="0.34"/>
</linearGradient>
<linearGradient id="paint4_linear_563_113" x1="256.112" y1="111.625" x2="256.112" y2="395.306" gradientUnits="userSpaceOnUse">
<stop stop-color="white"/>
<stop offset="1" stop-color="#6E6E6E"/>
</linearGradient>
</defs>
</svg>
